<svg aria-hidden="true" style="position: absolute; width: 0; height: 0; overflow: hidden;" version="1.1"
    xmlns="http://www.w3.org/2000/svg" xmlns:xlink="http://www.w3.org/1999/xlink">
    <defs>
        <symbol id="icon-search" viewBox="0 0 32 32">
            <path
                d="M12.235 0C5.478 0 0 5.478 0 12.235S5.478 24.47 12.235 24.47c2.665 0 5.132-.852 7.141-2.299a12.323 12.323 0 0 0 2.796-2.796 12.18 12.18 0 0 0 2.298-7.14C24.47 5.478 18.992 0 12.235 0zm-8.47 12.235c0-4.678 3.792-8.471 8.471-8.471s8.471 3.792 8.471 8.471c0 4.678-3.792 8.471-8.471 8.471s-8.471-3.792-8.471-8.471z" />
            <path
                d="M30.118 27.294c-3.765-3.765-7.945-7.919-7.945-7.919a12.303 12.303 0 0 1-2.796 2.796s5.094 5.123 7.917 7.946c.478.478 2.095.703 2.824 0 .708-.683.543-2.28 0-2.824z" />
        </symbol>
        <symbol id="close-modal" viewBox="0 0 32 32">
            <path stroke-width="1.882" d="m1.882 1.882 28.235 28.235m-28.235.001L30.117 1.883" />
        </symbol>
        <symbol id="icon-arrow-left" viewBox="0 0 16 32">
            <path stroke-linejoin="miter" stroke-linecap="butt" stroke-miterlimit="4" stroke-width="0.3137"
                d="M16 0.314l-15.686 15.686 15.686 15.686"></path>
        </symbol>
        <symbol id="icon-arrow-rigth" viewBox="0 0 16 32">
            <path stroke-linejoin="miter" stroke-linecap="butt" stroke-miterlimit="4" stroke-width="0.3137"
                d="M0.314 0.314l15.686 15.686-15.686 15.686"></path>
        </symbol>
        <symbol id="arrow-down" viewBox="0 0 50 32">
            <path stroke-linecap="round" stroke-linejoin="round" stroke-width="3.429"
                d="M45.714 4.571 25.143 27.428 4.572 4.571" />
        </symbol>
        <symbol id="gold-apple" viewBox="0 0 29 32">
            <path fill="#76a23b"
                d="M3.494 0C2.116.01 0 .49 0 .49s.577 1.471 1.103 2.329C2.209 4.623 3.1 5.575 4.904 6.681c2.094 1.284 3.613 1.692 6.069 1.655.965-.015 2.452-.306 2.452-.306s.05-1.055-.061-1.716c-.35-2.084-1.83-3.827-4.046-5.027C7.847.49 5.823-.017 3.494 0z"
                style="fill:var(--color1, #76a23b)" />
            <path fill="#fd0"
                d="M21.211 9.932c-3.985 0-6.191 2.759-6.191 2.759s-1.717-2.768-6.069-2.697c-5.088.083-7.724 4.291-7.724 8.582 0 7.601 6.621 13.364 11.218 13.303 1.839-.024 2.575-.674 2.575-.674s.613.674 2.575.674c4.046 0 11.218-4.843 11.218-13.303 0-4.495-3.106-8.643-7.602-8.644z"
                style="fill:var(--color2, #fd0)" />
            <path fill="#fff"
                d="M4.966 12.629c1.99-1.621 4.169-1.655 4.169-1.655s-2.247 1.245-3.31 2.452c-1.763 2.002-2.402 3.923-2.452 6.375-.032 1.582.736 4.046.736 4.046s-1.9-2.513-1.9-5.211c0-2.582 1.103-4.659 2.759-6.008z"
                style="fill:var(--color3, #fff)" />
            <path fill="#764d38"
                d="m17.287 5.211-2.207-.92s-1.131 2.294-1.103 3.862c.026 1.476.981 3.617.981 3.617s-.368-2.391.306-4.046c.467-1.147 2.023-2.513 2.023-2.513z"
                style="fill:var(--color4, #764d38)" />
        </symbol>
        <symbol id="green-apple" viewBox="0 0 29 32">
            <path fill="#76a23b"
                d="M3.494 0C2.116.01 0 .49 0 .49s.577 1.471 1.103 2.329C2.209 4.623 3.1 5.575 4.904 6.681c2.094 1.284 3.613 1.692 6.069 1.655.965-.015 2.452-.306 2.452-.306s.05-1.055-.061-1.716c-.35-2.084-1.83-3.827-4.046-5.027C7.847.49 5.823-.017 3.494 0z"
                style="fill:var(--color1, #76a23b)" />
            <path fill="#a5cd03"
                d="M21.211 9.932c-3.985 0-6.191 2.759-6.191 2.759s-1.717-2.768-6.069-2.697c-5.088.083-7.724 4.291-7.724 8.582 0 7.601 6.621 13.364 11.218 13.303 1.839-.024 2.575-.674 2.575-.674s.613.674 2.575.674c4.046 0 11.218-4.843 11.218-13.303 0-4.495-3.106-8.643-7.602-8.644z"
                style="fill:var(--color5, #a5cd03)" />
            <path fill="#fff"
                d="M4.966 12.629c1.99-1.621 4.169-1.655 4.169-1.655s-2.247 1.245-3.31 2.452c-1.763 2.002-2.402 3.923-2.452 6.375-.032 1.582.736 4.046.736 4.046s-1.9-2.513-1.9-5.211c0-2.582 1.103-4.659 2.759-6.008z"
                style="fill:var(--color3, #fff)" />
            <path fill="#764d38"
                d="m17.287 5.211-2.207-.92s-1.131 2.294-1.103 3.862c.026 1.476.981 3.617.981 3.617s-.368-2.391.306-4.046c.467-1.147 2.023-2.513 2.023-2.513z"
                style="fill:var(--color4, #764d38)" />
        </symbol>
        <symbol id="red-apple" viewBox="0 0 29 32">
            <path fill="#76a23b"
                d="M3.494 0C2.116.01 0 .49 0 .49s.577 1.471 1.103 2.329C2.209 4.623 3.1 5.575 4.904 6.681c2.094 1.284 3.613 1.692 6.069 1.655.965-.015 2.452-.306 2.452-.306s.05-1.055-.061-1.716c-.35-2.084-1.83-3.827-4.046-5.027C7.847.49 5.823-.017 3.494 0z"
                style="fill:var(--color1, #76a23b)" />
            <path fill="#e20001"
                d="M21.211 9.932c-3.985 0-6.191 2.759-6.191 2.759s-1.717-2.768-6.069-2.697c-5.088.083-7.724 4.291-7.724 8.582 0 7.601 6.621 13.364 11.218 13.303 1.839-.024 2.575-.674 2.575-.674s.613.674 2.575.674c4.046 0 11.218-4.843 11.218-13.303 0-4.495-3.106-8.643-7.602-8.644z"
                style="fill:var(--color6, #e20001)" />
            <path fill="#fff"
                d="M4.966 12.629c1.99-1.621 4.169-1.655 4.169-1.655s-2.247 1.245-3.31 2.452c-1.763 2.002-2.402 3.923-2.452 6.375-.032 1.582.736 4.046.736 4.046s-1.9-2.513-1.9-5.211c0-2.582 1.103-4.659 2.759-6.008z"
                style="fill:var(--color3, #fff)" />
            <path fill="#764d38"
                d="m17.287 5.211-2.207-.92s-1.131 2.294-1.103 3.862c.026 1.476.981 3.617.981 3.617s-.368-2.391.306-4.046c.467-1.147 2.023-2.513 2.023-2.513z"
                style="fill:var(--color4, #764d38)" />
        </symbol>
    </defs>
</svg>