<svg xmlns="http://www.w3.org/2000/svg" width="42" height="40" viewBox="0 0 42 40" fill="none">
  <path d="M11 12.4286L1 22.4286L11 32.4286" stroke="#8ACECF" stroke-width="2" stroke-linecap="round" stroke-linejoin="round"/>
  <path d="M31 12.4286L41 22.4286L31 32.4286" stroke="#8ACECF" stroke-width="2" stroke-linecap="round" stroke-linejoin="round"/>
  <path d="M24.535 5.04268L15.9482 37.0891C15.8315 37.5246 15.3838 37.783 14.9484 37.6663C14.5129 37.5496 14.2544 37.102 14.3711 36.6665L22.9579 4.62011C23.0746 4.18463 23.5222 3.9262 23.9577 4.04288C24.3932 4.15957 24.6516 4.60719 24.535 5.04268Z" fill="#8ACECF"/>
  <path d="M22.9579 4.62011C23.0746 4.18463 23.5222 3.9262 23.9577 4.04288V4.04288C24.3932 4.15957 24.6516 4.60719 24.535 5.04268L23.4891 8.94581L21.9121 8.52324L22.9579 4.62011Z" fill="#D9D9D9"/>
  <path d="M25.6947 7.02252L28.8488 7.86765" stroke="#8ACECF" stroke-linecap="round"/>
  <path d="M17.8096 4.90973L20.9637 5.75485" stroke="#8ACECF" stroke-linecap="round"/>
  <path d="M19.6457 1.21124L21.2833 4.0205" stroke="#8ACECF" stroke-linecap="round"/>
  <path d="M17.5865 8.89655L20.4093 7.28248" stroke="#8ACECF" stroke-linecap="round"/>
  <path d="M25.2757 8.58643L26.9133 11.3957" stroke="#8ACECF" stroke-linecap="round"/>
  <path d="M26.1497 5.32446L28.9725 3.7104" stroke="#8ACECF" stroke-linecap="round"/>
</svg>