<svg aria-hidden="true" style="position: absolute; width: 0; height: 0; overflow: hidden;" version="1.1"
    xmlns="http://www.w3.org/2000/svg" xmlns:xlink="http://www.w3.org/1999/xlink">
    <defs>
        <symbol id="icon-search" viewBox="0 0 32 32">
            <path
                d="M12.235 0C5.478 0 0 5.478 0 12.235S5.478 24.47 12.235 24.47c2.665 0 5.132-.852 7.141-2.299a12.323 12.323 0 0 0 2.796-2.796 12.18 12.18 0 0 0 2.298-7.14C24.47 5.478 18.992 0 12.235 0zm-8.47 12.235c0-4.678 3.792-8.471 8.471-8.471s8.471 3.792 8.471 8.471c0 4.678-3.792 8.471-8.471 8.471s-8.471-3.792-8.471-8.471z" />
            <path
                d="M30.118 27.294c-3.765-3.765-7.945-7.919-7.945-7.919a12.303 12.303 0 0 1-2.796 2.796s5.094 5.123 7.917 7.946c.478.478 2.095.703 2.824 0 .708-.683.543-2.28 0-2.824z" />
        </symbol>
        <symbol id="close-modal" viewBox="0 0 32 32">
            <path stroke-width="1.882" d="m1.882 1.882 28.235 28.235m-28.235.001L30.117 1.883" />
        </symbol>
        <symbol id="icon-arrow-left" viewBox="0 0 16 32">
            <path stroke-linejoin="miter" stroke-linecap="butt" stroke-miterlimit="4" stroke-width="0.3137"
                d="M16 0.314l-15.686 15.686 15.686 15.686"></path>
        </symbol>
        <symbol id="icon-arrow-rigth" viewBox="0 0 16 32">
            <path stroke-linejoin="miter" stroke-linecap="butt" stroke-miterlimit="4" stroke-width="0.3137"
                d="M0.314 0.314l15.686 15.686-15.686 15.686"></path>
        </symbol>
        <symbol id="arrow-down" viewBox="0 0 50 32">
            <path stroke-linecap="round" stroke-linejoin="round" stroke-width="3.429"
                d="M45.714 4.571 25.143 27.428 4.572 4.571" />
        </symbol>
    </defs>
</svg>